<?xml version="1.0" encoding="UTF-8"?>
<svg xmlns="http://www.w3.org/2000/svg" xmlns:xlink="http://www.w3.org/1999/xlink" viewBox="0 0 12 12" width="12px" height="12px">
<g id="surface52543">
<path style=" stroke:none;fill-rule:nonzero;fill:rgb(60.000002%,60.000002%,60.000002%);fill-opacity:1;" d="M 5.039062 0.71875 C 2.789062 0.71875 0.960938 2.550781 0.960938 4.800781 C 0.960938 7.050781 2.789062 8.878906 5.039062 8.878906 C 5.929688 8.878906 6.753906 8.59375 7.425781 8.109375 L 10.582031 11.257812 L 11.257812 10.582031 L 8.136719 7.453125 C 8.75 6.742188 9.121094 5.8125 9.121094 4.800781 C 9.121094 2.550781 7.289062 0.71875 5.039062 0.71875 Z M 5.039062 1.199219 C 7.03125 1.199219 8.640625 2.808594 8.640625 4.800781 C 8.640625 6.792969 7.03125 8.398438 5.039062 8.398438 C 3.046875 8.398438 1.441406 6.792969 1.441406 4.800781 C 1.441406 2.808594 3.046875 1.199219 5.039062 1.199219 Z M 5.039062 1.199219 "/>
</g>
</svg>


