<svg width="268" height="11" viewBox="0 0 268 11" fill="none" xmlns="http://www.w3.org/2000/svg">
  <path d="M6.28371 5.07933C6.99245 4.57813 7.4893 3.75526 7.4893 2.99224C7.4893 1.30162 6.21064 0 4.56665 0H0V10.4728H5.14387C6.67096 10.4728 7.85463 9.20114 7.85463 7.63769C7.85463 6.50064 7.22626 5.52816 6.28371 5.07933ZM2.19199 1.87015H4.38398C4.99043 1.87015 5.47998 2.37135 5.47998 2.99224C5.47998 3.61313 4.99043 4.11433 4.38398 4.11433H2.19199V1.87015ZM4.74931 8.60269H2.19199V6.35851H4.74931C5.35576 6.35851 5.84531 6.85971 5.84531 7.4806C5.84531 8.10149 5.35576 8.60269 4.74931 8.60269Z" fill="#828080"/>
  <path d="M24.0002 0V2.24418H25.6879L23.0762 8.22866H20.9456V10.4728H27.0548V8.22866H25.3671L27.9788 2.24418H30.1094V0H24.0002Z" fill="#828080"/>
  <path d="M49.746 7.63645C51.6031 7.63645 53.1123 6.16916 53.1123 4.36368V0H51.7097V4.36368C51.7097 5.41642 50.8288 6.2728 49.746 6.2728C48.6632 6.2728 47.7824 5.41642 47.7824 4.36368V0H46.3797V4.36368C46.3797 6.16916 47.889 7.63645 49.746 7.63645ZM45.8187 8.72737V9.81829H53.6733V8.72737H45.8187Z" fill="#828080"/>
  <path d="M70.3644 3.92732C69.8211 3.92732 69.3826 4.36587 69.3826 4.90915C69.3826 5.45242 69.8211 5.89097 70.3644 5.89097C70.9077 5.89097 71.3463 5.45242 71.3463 4.90915C71.3463 4.36587 70.9077 3.92732 70.3644 3.92732ZM70.3644 0C69.8211 0 69.3826 0.43855 69.3826 0.981829C69.3826 1.52511 69.8211 1.96366 70.3644 1.96366C70.9077 1.96366 71.3463 1.52511 71.3463 0.981829C71.3463 0.43855 70.9077 0 70.3644 0ZM70.3644 7.85463C69.8211 7.85463 69.3826 8.29973 69.3826 8.83646C69.3826 9.37319 69.8277 9.81829 70.3644 9.81829C70.9012 9.81829 71.3463 9.37319 71.3463 8.83646C71.3463 8.29973 70.9077 7.85463 70.3644 7.85463ZM72.3281 9.49101H81.4918V8.18191H72.3281V9.49101ZM72.3281 5.5637H81.4918V4.25459H72.3281V5.5637ZM72.3281 0.327276V1.63638H81.4918V0.327276H72.3281Z" fill="#828080"/>
  <path d="M97.201 7.97736H98.4413V8.28418H97.8212V8.89783H98.4413V9.20465H97.201V9.81829H99.0614V7.36372H97.201V7.97736ZM97.8212 2.45457H98.4413V0H97.201V0.613643H97.8212V2.45457ZM97.201 4.2955H98.3172L97.201 5.58415V6.13643H99.0614V5.52279H97.9452L99.0614 4.23414V3.68186H97.201V4.2955ZM100.302 0.613643V1.84093H108.983V0.613643H100.302ZM100.302 9.20465H108.983V7.97736H100.302V9.20465ZM100.302 5.52279H108.983V4.2955H100.302V5.52279Z" fill="#828080"/>
  <path d="M131.238 6.54553H124.692V7.63645H131.238V6.54553ZM131.238 2.18184H124.692V3.27276H131.238V2.18184ZM124.692 5.45461H134.511V4.36368H124.692V5.45461ZM124.692 9.81829H134.511V8.72737H124.692V9.81829ZM124.692 0V1.09092H134.511V0H124.692Z" fill="#828080"/>
  <path d="M152.402 6.54553V7.63645H157.856V6.54553H152.402ZM150.22 9.81829H160.038V8.72737H150.22V9.81829ZM150.22 5.45461H160.038V4.36368H150.22V5.45461ZM152.402 2.18184V3.27276H157.856V2.18184H152.402ZM150.22 0V1.09092H160.038V0H150.22Z" fill="#828080"/>
  <path d="M175.747 9.81829H185.566V8.72737H175.747V9.81829ZM179.02 7.63645H185.566V6.54553H179.02V7.63645ZM175.747 5.45461H185.566V4.36368H175.747V5.45461ZM179.02 3.27276H185.566V2.18184H179.02V3.27276ZM175.747 0V1.09092H185.566V0H175.747Z" fill="#828080"/>
  <path d="M207.545 0H202.171C201.678 0 201.275 0.401657 201.275 0.892572V7.14057H202.171V0.892572H207.545V0ZM207.097 1.78514L209.784 4.46286V8.92572C209.784 9.41663 209.381 9.81829 208.888 9.81829H203.958C203.465 9.81829 203.066 9.41663 203.066 8.92572L203.071 2.67772C203.071 2.1868 203.469 1.78514 203.962 1.78514H207.097ZM206.649 4.90915H209.112L206.649 2.45457V4.90915Z" fill="#828080"/>
  <path d="M232.366 1.96374C230.632 1.96374 229.061 2.61175 227.85 3.66558L225.493 1.30919V7.20016H231.384L229.015 4.83068C229.925 4.0714 231.083 3.60012 232.366 3.60012C234.683 3.60012 236.653 5.11214 237.341 7.20016L238.892 6.68961C237.982 3.94704 235.41 1.96374 232.366 1.96374Z" fill="#828080"/>
  <path d="M261.127 1.96374C262.862 1.96374 264.433 2.61175 265.644 3.66558L268 1.30919V7.20016H262.109L264.479 4.83068C263.569 4.0714 262.41 3.60012 261.127 3.60012C258.81 3.60012 256.84 5.11214 256.153 7.20016L254.601 6.68961C255.511 3.94704 258.084 1.96374 261.127 1.96374Z" fill="#828080"/>
  </svg>
  